<svg width="21" height="20" viewBox="0 0 21 20" fill="none" xmlns="http://www.w3.org/2000/svg">
<path fill-rule="evenodd" clip-rule="evenodd" d="M18.3231 18.3215C18.8246 17.8185 19.2185 17.2138 19.4754 16.5508C19.7215 15.9138 19.8908 15.1877 19.94 14.1231C19.9892 13.0569 20.0015 12.7154 20.0015 10C20.0015 7.28462 19.9892 6.94308 19.94 5.87692C19.8908 4.81231 19.7215 4.08615 19.4754 3.44923C19.2242 2.78207 18.8304 2.17775 18.3215 1.67846C17.8222 1.16969 17.2179 0.775926 16.5508 0.524615C15.9138 0.278461 15.1877 0.109231 14.1231 0.0600001C13.0569 0.0107693 12.7154 0 10 0C7.28462 0 6.94308 0.0107692 5.87692 0.0615384C4.81231 0.107692 4.08615 0.276923 3.44923 0.524615C2.7824 0.7765 2.17822 1.17019 1.67846 1.67846C1.17019 2.17822 0.7765 2.7824 0.524615 3.44923C0.278461 4.08615 0.109231 4.81231 0.0600001 5.87692C0.0107693 6.94308 0 7.28462 0 10C0 12.7154 0.0107692 13.0569 0.0615384 14.1231C0.107692 15.1877 0.276923 15.9138 0.524615 16.5508C0.776923 17.2185 1.17077 17.8215 1.67846 18.3215C2.17846 18.8292 2.78308 19.2231 3.44923 19.4754C4.08615 19.7215 4.81231 19.8908 5.87692 19.94C6.94308 19.9877 7.28462 20 10 20C12.7154 20 13.0569 19.9877 14.1231 19.9385C15.1877 19.8923 15.9138 19.7231 16.5508 19.4754C17.215 19.2183 17.8181 18.8253 18.3215 18.3215H18.3231ZM1.53846 8.82308V11.1769C1.53538 12.44 1.53538 12.7677 1.56923 13.4846C1.60923 14.3862 1.65846 15.0477 1.80923 15.5462C1.95385 16.0262 2.11538 16.5154 2.64462 17.1031C3.17385 17.6923 3.68308 17.9585 4.33231 18.1554C4.98308 18.3508 5.8 18.3923 6.50923 18.4246C7.31231 18.4615 7.63231 18.4615 9.31846 18.4615H11.1385C12.4338 18.4631 12.76 18.4646 13.4862 18.4308C14.3862 18.3892 15.0477 18.34 15.5477 18.1908C16.0262 18.0462 16.5154 17.8831 17.1031 17.3554C17.6923 16.8262 17.9585 16.3154 18.1554 15.6662C18.3508 15.0169 18.3938 14.2 18.4262 13.4908C18.4615 12.6877 18.4615 12.3692 18.4615 10.6877V9.31846C18.4615 7.63231 18.4615 7.31385 18.4262 6.50923C18.3938 5.8 18.3508 4.98308 18.1554 4.33385C17.96 3.68308 17.6938 3.17385 17.1031 2.64462C16.5138 2.11538 16.0262 1.95385 15.5477 1.80923C15.0477 1.66 14.3862 1.60923 13.4862 1.56923C12.704 1.53709 11.9212 1.52683 11.1385 1.53846H9.31846C7.63231 1.53846 7.31231 1.53846 6.50923 1.57385C5.8 1.60615 4.98308 1.64923 4.33231 1.84462C3.68308 2.04154 3.17385 2.30769 2.64462 2.89692C2.11538 3.48615 1.95231 3.97385 1.80923 4.45385C1.65846 4.95231 1.60923 5.61385 1.56923 6.51538C1.53538 7.23231 1.53538 7.56 1.53846 8.82308V8.82308ZM10 6.53846C9.08194 6.53846 8.20149 6.90316 7.55232 7.55232C6.90316 8.20149 6.53846 9.08194 6.53846 10C6.53846 10.9181 6.90316 11.7985 7.55232 12.4477C8.20149 13.0968 9.08194 13.4615 10 13.4615C10.9181 13.4615 11.7985 13.0968 12.4477 12.4477C13.0968 11.7985 13.4615 10.9181 13.4615 10C13.4615 9.08194 13.0968 8.20149 12.4477 7.55232C11.7985 6.90316 10.9181 6.53846 10 6.53846V6.53846ZM5 10C5 8.67392 5.52678 7.40215 6.46447 6.46447C7.40215 5.52678 8.67392 5 10 5C11.3261 5 12.5979 5.52678 13.5355 6.46447C14.4732 7.40215 15 8.67392 15 10C15 11.3261 14.4732 12.5979 13.5355 13.5355C12.5979 14.4732 11.3261 15 10 15C8.67392 15 7.40215 14.4732 6.46447 13.5355C5.52678 12.5979 5 11.3261 5 10V10ZM15.3385 5.81539C15.6445 5.81539 15.938 5.69382 16.1544 5.47743C16.3707 5.26104 16.4923 4.96756 16.4923 4.66154C16.4923 4.35552 16.3707 4.06203 16.1544 3.84565C15.938 3.62926 15.6445 3.50769 15.3385 3.50769C15.0324 3.50769 14.739 3.62926 14.5226 3.84565C14.3062 4.06203 14.1846 4.35552 14.1846 4.66154C14.1846 4.96756 14.3062 5.26104 14.5226 5.47743C14.739 5.69382 15.0324 5.81539 15.3385 5.81539Z" fill="white"/>
</svg>
