<svg width="25" height="25" viewBox="0 0 25 25" fill="none" xmlns="http://www.w3.org/2000/svg">
<path d="M5.72919 22.9167C5.31252 22.9167 4.94794 22.7604 4.63544 22.4479C4.32294 22.1354 4.16669 21.7708 4.16669 21.3542V7.81251C4.16669 7.39584 4.32294 7.03126 4.63544 6.71876C4.94794 6.40626 5.31252 6.25001 5.72919 6.25001H8.59377V5.98959C8.59377 4.89584 8.97137 3.97136 9.72658 3.21616C10.4818 2.46095 11.4063 2.08334 12.5 2.08334C13.5938 2.08334 14.5182 2.46095 15.2735 3.21616C16.0287 3.97136 16.4063 4.89584 16.4063 5.98959V6.25001H19.2709C19.6875 6.25001 20.0521 6.40626 20.3646 6.71876C20.6771 7.03126 20.8334 7.39584 20.8334 7.81251V21.3542C20.8334 21.7708 20.6771 22.1354 20.3646 22.4479C20.0521 22.7604 19.6875 22.9167 19.2709 22.9167H5.72919ZM5.72919 21.3542H19.2709V7.81251H16.4063V10.1563C16.4063 10.382 16.3325 10.5686 16.1849 10.7162C16.0373 10.8637 15.8507 10.9375 15.625 10.9375C15.3993 10.9375 15.2127 10.8637 15.0651 10.7162C14.9176 10.5686 14.8438 10.382 14.8438 10.1563V7.81251H10.1563V10.1563C10.1563 10.382 10.0825 10.5686 9.93492 10.7162C9.78735 10.8637 9.60071 10.9375 9.37502 10.9375C9.14933 10.9375 8.96269 10.8637 8.81512 10.7162C8.66755 10.5686 8.59377 10.382 8.59377 10.1563V7.81251H5.72919V21.3542ZM10.1563 6.25001H14.8438V5.98959C14.8438 5.32987 14.6181 4.77432 14.1667 4.32293C13.7153 3.87154 13.1597 3.64584 12.5 3.64584C11.8403 3.64584 11.2847 3.87154 10.8334 4.32293C10.382 4.77432 10.1563 5.32987 10.1563 5.98959V6.25001ZM5.72919 21.3542V7.81251V21.3542Z" fill="#262626"/>
</svg>
