<svg width="20" height="16" viewBox="0 0 20 16" fill="none" xmlns="http://www.w3.org/2000/svg">
<path d="M19.7025 2.11417C19.0067 2.4225 18.2592 2.63084 17.4733 2.725C18.2842 2.23983 18.8908 1.47622 19.18 0.576669C18.4182 1.02916 17.5844 1.34766 16.715 1.51834C16.1303 0.894056 15.3559 0.480274 14.5119 0.34123C13.668 0.202187 12.8017 0.345661 12.0477 0.749379C11.2936 1.1531 10.694 1.79447 10.3418 2.57392C9.9896 3.35337 9.9046 4.22729 10.1 5.06C8.55639 4.9825 7.04635 4.58129 5.66784 3.88242C4.28934 3.18355 3.07319 2.20264 2.09832 1.00334C1.76499 1.57834 1.57332 2.245 1.57332 2.955C1.57295 3.59416 1.73035 4.22354 2.03155 4.78728C2.33276 5.35102 2.76846 5.8317 3.29999 6.18667C2.68355 6.16705 2.08072 6.00049 1.54166 5.70084V5.75083C1.54159 6.64729 1.85168 7.51615 2.41931 8.21C2.98693 8.90385 3.77713 9.37994 4.65582 9.5575C4.08398 9.71226 3.48444 9.73506 2.90249 9.62417C3.1504 10.3955 3.63332 11.07 4.28363 11.5533C4.93394 12.0365 5.71909 12.3043 6.52916 12.3192C5.15402 13.3987 3.45573 13.9842 1.70749 13.9817C1.39781 13.9818 1.08839 13.9637 0.780823 13.9275C2.55539 15.0685 4.62111 15.674 6.73082 15.6717C13.8725 15.6717 17.7767 9.75667 17.7767 4.62667C17.7767 4.46 17.7725 4.29167 17.765 4.125C18.5244 3.57581 19.1799 2.89575 19.7008 2.11667L19.7025 2.11417Z" fill="white"/>
</svg>
